<svg width="236" height="280" viewBox="0 0 236 280" fill="none" xmlns="http://www.w3.org/2000/svg">
<path d="M235.118 79.4565H79.2442C78.7402 79.4565 78.3622 79.0776 78.3622 78.5725C78.3622 78.0673 78.7402 77.6885 79.2442 77.6885H235.118C235.622 77.6885 236 78.0673 236 78.5725C236 79.0776 235.496 79.4565 235.118 79.4565Z" fill="#616161"/>
<path d="M213.949 45.6104H208.405V77.8136H213.949C220.124 77.8136 225.164 70.6152 225.164 61.7751C225.164 52.935 220.25 45.6104 213.949 45.6104Z" fill="#2F313F"/>
<path d="M208.404 77.6863C202.211 77.6863 197.189 70.5056 197.189 61.6478C197.189 52.79 202.211 45.6094 208.404 45.6094C214.598 45.6094 219.619 52.79 219.619 61.6478C219.619 70.5056 214.598 77.6863 208.404 77.6863Z" fill="#2F313F"/>
<path d="M104.825 48.2637H99.2803V77.6886H104.825C110.999 77.6886 116.04 70.4902 116.04 61.6501C116.04 52.81 110.999 48.2637 104.825 48.2637Z" fill="#2F313F"/>
<path d="M169.216 48.2637H163.671V77.6886H169.216C175.39 77.6886 180.431 70.4902 180.431 61.6501C180.431 52.81 175.39 48.2637 169.216 48.2637Z" fill="#2F313F"/>
<path d="M233.48 53.4406V61.6492C233.48 64.4275 231.464 66.9533 228.692 67.3321L215.587 69.3527H122.088V13.2812H156.489C163.545 13.2812 170.602 14.6704 177.028 17.1962L205.758 32.8558L228.188 45.6108C229.7 46.2422 230.96 47.1262 231.842 48.3891L231.968 48.5154C232.85 49.6519 233.354 51.0411 233.48 52.5565C233.48 52.9354 233.48 53.188 233.48 53.4406Z" fill="#F4F4F6"/>
<path d="M188.495 53.3146V60.8918C188.495 65.5644 184.714 69.3531 180.052 69.3531H96.2557L86.1749 62.5335C84.6628 61.5233 83.6547 59.7552 83.6547 57.8609V51.5466C83.6547 49.0208 84.0328 46.4951 84.9148 44.0956L91.8453 24.3948C94.2395 17.7016 100.54 13.1553 107.723 13.1553H121.458C125.238 13.1553 131.79 15.3022 136.453 17.0702C139.729 18.333 142.753 19.8485 145.777 21.7428L163.167 32.8561L183.076 45.4848C185.974 47.2528 188.495 49.7785 188.495 53.3146Z" fill="white"/>
<path d="M125.112 31.4666C125.112 25.026 124.104 18.9642 122.214 13.2812C121.962 13.2812 121.71 13.2812 121.458 13.2812H107.849C103.439 13.2812 99.4064 15.0493 96.3821 17.8276C98.7763 21.6162 100.288 26.4151 100.288 31.4666C100.288 37.5284 98.2723 42.9587 94.996 47.1262V68.4687L96.3821 69.479H110.495L110.621 69.3527C119.442 59.8812 125.112 46.3685 125.112 31.4666Z" fill="#34D186"/>
<path d="M99.1548 77.6873C92.961 77.6873 87.9399 70.5066 87.9399 61.6488C87.9399 52.791 92.961 45.6104 99.1548 45.6104C105.349 45.6104 110.37 52.791 110.37 61.6488C110.37 70.5066 105.349 77.6873 99.1548 77.6873Z" fill="#2F313F"/>
<path d="M99.155 72.5095C95.5362 72.5095 92.6025 67.647 92.6025 61.6488C92.6025 55.6506 95.5362 50.7881 99.155 50.7881C102.774 50.7881 105.708 55.6506 105.708 61.6488C105.708 67.647 102.774 72.5095 99.155 72.5095Z" fill="#A9ABB9"/>
<path d="M163.545 77.6873C157.351 77.6873 152.33 70.5066 152.33 61.6488C152.33 52.791 157.351 45.6104 163.545 45.6104C169.739 45.6104 174.76 52.791 174.76 61.6488C174.76 70.5066 169.739 77.6873 163.545 77.6873Z" fill="#2F313F"/>
<path d="M163.545 72.5095C159.926 72.5095 156.993 67.647 156.993 61.6488C156.993 55.6506 159.926 50.7881 163.545 50.7881C167.164 50.7881 170.098 55.6506 170.098 61.6488C170.098 67.647 167.164 72.5095 163.545 72.5095Z" fill="#A9ABB9"/>
<path d="M199.71 58.8703L199.836 58.9966L199.08 57.6074L199.71 58.8703Z" fill="#A9ABB9"/>
<path d="M233.48 53.4415V56.2198H227.684C226.802 56.2198 225.92 55.8409 225.416 55.0832L223.148 52.0523C222.644 51.2946 221.762 50.9157 220.88 50.9157H204.12C203.238 50.9157 202.356 51.2946 201.852 52.0523L199.584 55.0832C199.08 55.8409 198.198 56.2198 197.316 56.2198H186.227C185.345 56.2198 184.463 55.8409 183.959 55.0832L182.447 53.0626C181.061 51.1683 182.447 48.6426 184.715 48.6426H231.968C232.85 49.7792 233.354 51.1683 233.48 52.6838C233.48 52.9363 233.48 53.1889 233.48 53.4415Z" fill="#A9ABB9"/>
<path d="M205.758 32.8569H163.167L145.651 21.8699C142.627 19.9756 139.603 18.4601 136.327 17.1973H169.971C174.633 17.1973 179.296 18.3338 183.328 20.607L205.758 32.8569Z" fill="#585A68"/>
<path d="M163.167 32.8569H114.905C112.007 32.8569 109.361 31.3414 107.723 28.942L104.195 23.3853C102.556 20.7333 104.447 17.1973 107.597 17.1973H136.453C139.729 18.4601 142.753 19.9756 145.778 21.8699L163.167 32.8569Z" fill="#2F313F"/>
<path d="M222.459 12.1367C223.341 15.1676 225.483 17.6934 228.003 18.7036C225.231 19.9665 223.215 22.366 222.459 25.2706C221.576 22.2397 219.56 19.7139 216.914 18.7036C219.434 17.6934 221.576 15.2939 222.459 12.1367Z" fill="white"/>
<path d="M57.04 12.8809C57.9221 15.9118 60.0643 18.4375 62.5845 19.4478C59.8123 20.7107 57.7961 23.1101 57.04 26.0147C56.158 22.9838 54.1418 20.4581 51.4956 19.4478C54.0158 18.4375 56.158 16.038 57.04 12.8809Z" fill="white"/>
<path d="M73.799 0C72.4129 4.79891 69.2627 8.58753 65.2304 10.103C69.5147 11.9973 72.6649 15.7859 73.799 20.2059C75.1851 15.407 78.3354 11.6184 82.3677 10.103C78.3354 8.58753 75.1851 4.79891 73.799 0Z" fill="white"/>
<path d="M222.902 207.184C221.516 211.983 218.366 215.771 214.333 217.287C218.618 219.181 221.768 222.969 222.902 227.39C224.288 222.591 227.438 218.802 231.471 217.287C227.438 215.771 224.288 211.983 222.902 207.184Z" fill="white"/>
<path d="M233.228 279.999H54.4209C53.9168 279.999 53.5388 279.621 53.5388 279.115C53.5388 278.61 53.9168 278.231 54.4209 278.231H233.228C233.732 278.231 234.11 278.61 234.11 279.115C234.11 279.621 233.732 279.999 233.228 279.999Z" fill="#616161"/>
<path d="M208.656 246.407H203.112V278.358H208.656C214.831 278.358 219.745 271.159 219.745 262.446C219.745 253.479 214.831 246.407 208.656 246.407Z" fill="#2F313F"/>
<path d="M203.112 278.232C196.988 278.232 192.024 271.107 192.024 262.319C192.024 253.531 196.988 246.407 203.112 246.407C209.237 246.407 214.201 253.531 214.201 262.319C214.201 271.107 209.237 278.232 203.112 278.232Z" fill="#2F313F"/>
<path d="M83.6543 249.062H78.1099V278.36H83.6543C89.8288 278.36 94.7432 271.162 94.7432 262.448C94.7432 253.482 89.8288 249.062 83.6543 249.062Z" fill="#2F313F"/>
<path d="M164.174 249.062H158.63V278.36H164.174C170.349 278.36 175.263 271.162 175.263 262.448C175.389 253.482 170.349 249.062 164.174 249.062Z" fill="#2F313F"/>
<path d="M230.834 251.207V262.194C230.96 264.972 228.817 266.992 226.171 267.876L218.737 269.897H114.905L98.3976 230.874C98.3976 230.874 104.698 207.511 105.202 206.88C105.58 206.501 112.385 202.965 117.173 202.965H166.317C171.231 202.965 176.019 204.228 180.556 206.88C181.438 207.385 182.32 207.89 183.202 208.521C183.832 208.9 184.462 209.405 185.092 209.911C191.645 215.467 207.27 230.874 207.27 230.874C207.27 230.874 226.045 243.756 226.297 243.882C227.179 244.387 227.935 245.018 228.691 245.776C228.817 245.902 228.817 246.029 228.943 246.029C229.069 246.155 229.069 246.281 229.195 246.281C230.078 247.544 230.708 248.933 230.834 250.575C230.834 250.828 230.834 250.954 230.834 251.207Z" fill="#F4F4F6"/>
<path d="M186.101 251.209V261.565C186.101 266.237 182.32 269.9 177.784 269.9H75.8423L68.0297 266.869C61.4772 265.101 55.1767 260.554 56.3108 252.598L62.2333 212.186C63.1153 206.251 67.7777 203.094 73.1961 203.094H124.608C129.27 203.094 137.335 204.104 140.233 207.009C141.871 208.65 162.033 231.003 162.033 231.003L180.808 243.506C183.958 244.642 186.101 247.673 186.101 251.209Z" fill="white"/>
<path d="M71.5576 251.083C78.3621 246.41 82.2684 237.696 82.2684 227.972C82.3944 210.292 75.8419 203.094 75.8419 203.094H104.572C108.982 210.292 110.999 219.132 110.999 228.099C110.999 244.516 105.076 259.292 95.6254 269.9H75.9679L71.5576 251.083Z" fill="#34D186"/>
<path d="M230.834 251.209V251.335V253.987H225.164C224.281 253.987 223.525 253.609 222.895 252.851L220.627 249.82C220.123 249.062 219.241 248.683 218.359 248.683H198.954C198.072 248.683 197.315 249.062 196.685 249.82L194.417 252.851C193.913 253.609 193.031 253.987 192.149 253.987H181.186C180.304 253.987 179.422 253.609 178.918 252.851L177.406 250.83C176.02 248.936 177.406 246.41 179.674 246.41H229.196C230.078 247.673 230.708 249.062 230.834 250.704C230.834 250.83 230.834 250.956 230.834 251.209Z" fill="#A9ABB9"/>
<path d="M78.1099 278.233C71.9857 278.233 67.0211 271.108 67.0211 262.32C67.0211 253.532 71.9857 246.408 78.1099 246.408C84.2341 246.408 89.1987 253.532 89.1987 262.32C89.1987 271.108 84.2341 278.233 78.1099 278.233Z" fill="#2F313F"/>
<path d="M78.1101 273.056C74.4913 273.056 71.5576 268.25 71.5576 262.321C71.5576 256.393 74.4913 251.587 78.1101 251.587C81.729 251.587 84.6626 256.393 84.6626 262.321C84.6626 268.25 81.729 273.056 78.1101 273.056Z" fill="#A9ABB9"/>
<path d="M158.63 278.233C152.506 278.233 147.542 271.108 147.542 262.32C147.542 253.532 152.506 246.408 158.63 246.408C164.755 246.408 169.719 253.532 169.719 262.32C169.719 271.108 164.755 278.233 158.63 278.233Z" fill="#2F313F"/>
<path d="M158.631 273.056C155.012 273.056 152.078 268.25 152.078 262.321C152.078 256.393 155.012 251.587 158.631 251.587C162.249 251.587 165.183 256.393 165.183 262.321C165.183 268.25 162.249 273.056 158.631 273.056Z" fill="#A9ABB9"/>
<path d="M207.27 231.001H156.488C156.488 231.001 142.249 208.396 140.232 207.007H172.239H172.365C179.925 207.007 185.218 210.038 190.636 215.089L207.27 231.001Z" fill="#585A68"/>
<path d="M162.032 231.001H133.428C128.262 231.001 123.725 227.339 122.591 222.287L120.197 213.826C119.441 210.416 122.087 207.133 125.615 207.133H140.233C143.635 210.037 162.032 231.001 162.032 231.001Z" fill="#2F313F"/>
<path d="M43.8828 238.391C43.0008 241.422 40.8586 243.947 38.3384 244.958C41.1106 246.22 43.1268 248.62 43.8828 251.525C44.7649 248.494 46.781 245.968 49.4272 244.958C46.9071 243.947 44.8909 241.548 43.8828 238.391Z" fill="white"/>
<path d="M180.254 172.507H2.68559C2.21707 172.507 1.74855 172.136 1.74855 171.64C1.74855 171.145 2.09995 170.773 2.68559 170.773H180.254C180.723 170.773 181.191 171.145 181.191 171.64C181.191 172.136 180.723 172.507 180.254 172.507Z" fill="#616161"/>
<path d="M154.219 140.326H148.927V171.014H154.219C160.142 171.014 164.93 164.194 164.93 155.607C164.93 147.019 160.142 140.326 154.219 140.326Z" fill="#2F313F"/>
<path d="M148.927 171.014C143.011 171.014 138.216 164.116 138.216 155.607C138.216 147.098 143.011 140.2 148.927 140.2C154.842 140.2 159.638 147.098 159.638 155.607C159.638 164.116 154.842 171.014 148.927 171.014Z" fill="#2F313F"/>
<path d="M31.3605 142.849H26.0681V171.011H31.3605C37.2829 171.011 42.0713 164.191 42.0713 155.604C42.0713 147.016 37.2829 142.849 31.3605 142.849Z" fill="#2F313F"/>
<path d="M175.516 147.649V144.997C175.516 143.356 175.138 141.714 174.508 140.325C173.121 137.294 170.223 135.021 166.821 134.389L136.831 128.201L118.181 116.078C117.551 115.573 116.921 115.194 116.417 114.815C115.535 114.183 114.653 113.678 113.771 113.173C109.487 110.647 104.824 109.384 100.162 109.384H55.4286C50.7662 109.384 55.4286 109.132 52.9084 112.036C52.6564 112.415 52.2783 112.794 51.9003 113.047C51.3963 113.552 50.7662 114.057 50.0102 114.689L45.3478 128.075L44.4657 130.727C44.4657 130.727 45.4738 158.258 49.1281 159.394L53.2864 162.93H132.672H158.63L171.105 161.036C173.751 160.657 175.642 158.258 175.642 155.606V149.544L175.516 147.649Z" fill="#F4F4F6"/>
<path d="M108.857 142.849H103.564V171.011H108.857C114.779 171.011 119.567 164.191 119.567 155.604C119.567 147.016 114.779 142.849 108.857 142.849Z" fill="#2F313F"/>
<path d="M132.546 144.745V154.848C132.546 159.268 129.018 162.93 124.482 162.93H18.3818L8.04903 157.752C3.76471 155.606 1.49654 150.933 2.3786 146.26L4.64678 133.505C5.02481 131.232 6.66293 129.464 8.93109 128.833C10.9472 128.454 12.9634 127.444 14.8535 126.054L29.2186 115.446C34.511 111.531 40.4335 109.511 46.4819 109.511H62.6111C67.0215 109.511 74.078 110.9 77.7323 113.299C79.6224 114.562 81.3865 116.078 82.7726 117.846L93.3574 128.201L123.978 134.263C129.018 135.273 132.546 139.693 132.546 144.745Z" fill="white"/>
<path d="M19.7675 162.931H41.8192C49.2537 153.964 53.6641 142.472 53.6641 129.97C53.6641 122.645 52.152 115.699 49.3798 109.385H46.4815C40.4331 109.385 34.5106 111.405 29.2182 115.32L23.2958 119.74C24.8079 122.771 25.69 126.307 25.69 129.97C25.69 136.031 23.4218 141.462 19.7675 145.629V162.931Z" fill="#34D186"/>
<path d="M25.942 171.014C20.0266 171.014 15.2312 164.116 15.2312 155.607C15.2312 147.098 20.0266 140.2 25.942 140.2C31.8574 140.2 36.6528 147.098 36.6528 155.607C36.6528 164.116 31.8574 171.014 25.942 171.014Z" fill="#2F313F"/>
<path d="M25.9427 165.962C22.463 165.962 19.6422 161.326 19.6422 155.607C19.6422 149.887 22.463 145.251 25.9427 145.251C29.4223 145.251 32.2432 149.887 32.2432 155.607C32.2432 161.326 29.4223 165.962 25.9427 165.962Z" fill="#A9ABB9"/>
<path d="M103.438 171.014C97.5222 171.014 92.7268 164.116 92.7268 155.607C92.7268 147.098 97.5222 140.2 103.438 140.2C109.353 140.2 114.148 147.098 114.148 155.607C114.148 164.116 109.353 171.014 103.438 171.014Z" fill="#2F313F"/>
<path d="M103.438 165.962C99.9586 165.962 97.1378 161.326 97.1378 155.607C97.1378 149.887 99.9586 145.251 103.438 145.251C106.918 145.251 109.739 149.887 109.739 155.607C109.739 161.326 106.918 165.962 103.438 165.962Z" fill="#A9ABB9"/>
<path d="M174.507 140.326H126.498C124.356 140.326 123.096 142.852 124.356 144.62L125.742 146.641C126.246 147.272 127.002 147.777 127.884 147.777H138.469C139.351 147.777 140.107 147.398 140.611 146.767L142.753 143.862C143.257 143.231 144.013 142.852 144.895 142.852H163.545C164.427 142.852 165.183 143.231 165.687 143.862L167.829 146.767C168.333 147.398 169.089 147.777 169.971 147.777H175.557L175.557 145.201C175.557 143.034 175.137 141.715 174.507 140.326Z" fill="#A9ABB9"/>
<path d="M136.831 128.075H93.3573L82.7725 117.719C81.2604 115.951 79.6223 114.309 77.7321 113.173H105.832C110.999 113.173 116.039 114.688 120.323 117.467L136.831 128.075Z" fill="#585A68"/>
<path d="M93.3574 128.075H34.637C30.8567 128.075 29.2186 123.276 32.1168 121.003L35.7711 118.098C39.8034 114.941 44.7178 113.173 49.8842 113.173H77.7323C79.6224 114.436 81.3865 115.951 82.7726 117.719L93.3574 128.075Z" fill="#2F313F"/>
<path d="M58.075 168.613L57.0669 124.539H64.3755" fill="#2F313F"/>
<path d="M66.8956 113.174L68.2817 131.991L64.6275 132.496L61.0992 114.184L66.8956 113.174Z" fill="#FFAE80"/>
<path d="M68.2817 131.99C68.2817 131.99 68.9118 134.768 68.6597 136.031C68.2817 137.294 67.3996 138.431 66.5176 138.178C66.1395 138.052 66.3915 137.42 66.5176 136.536C66.5176 135.779 66.5176 134.895 66.1395 134.895C65.7615 134.895 66.2656 136.157 65.5095 136.284C65.0055 136.41 64.7534 135.147 64.6274 134.516C64.5014 133.379 64.7534 132.369 64.7534 132.369L64.3754 130.222L68.2817 129.717V131.99Z" fill="#FFAE80"/>
<path d="M50.0097 124.538H63.4927V132.873H50.0097V124.538Z" fill="#2F313F"/>
<path d="M45.7256 168.486L49.5059 124.412H56.6885L50.136 170.886C50.136 170.886 49.884 170.886 43.4575 170.886C43.4575 169.244 45.7256 168.486 45.7256 168.486Z" fill="#2F313F"/>
<path d="M56.6885 124.538H64.249L61.0988 168.612C61.0988 168.612 63.3669 169.244 63.3669 171.012C56.9405 171.012 56.3104 171.012 56.3104 171.012V168.612L56.6885 124.538Z" fill="#2F313F"/>
<path d="M49.6325 120.625C50.0105 118.226 50.8926 115.069 50.8926 115.069L45.0961 113.806C45.0961 113.806 44.0881 118.478 44.2141 120.373C44.4661 124.161 48.8764 124.54 49.6325 120.625Z" fill="#FFAE80"/>
<path d="M50.3881 115.574L50.01 116.837L48.3719 117.595V126.94H65.1312V115.322C65.1312 115.322 64.5011 115.195 67.6514 114.185C66.0132 101.051 47.1118 101.177 44.7176 114.185C45.4737 114.438 50.3881 115.574 50.3881 115.574Z" fill="#5B68F5"/>
<path d="M57.6968 118.224H59.965C60.217 118.224 60.4691 117.972 60.5951 117.719L61.8552 112.036C61.9812 111.657 61.6031 111.278 61.2251 111.278H58.9569C58.7049 111.278 58.4529 111.531 58.3269 111.783L57.0668 117.466C56.9408 117.845 57.1928 118.224 57.6968 118.224Z" fill="#2F313F"/>
<path d="M55.4287 115.573L57.1929 118.983C57.1929 118.983 50.1363 122.645 49.7583 122.772C43.4578 125.171 42.4498 118.604 49.1283 116.962C52.7825 116.205 55.4287 115.573 55.4287 115.573Z" fill="#FFAE80"/>
<path d="M55.1766 115.825C55.8066 114.815 57.8228 114.057 59.3349 114.815C60.847 115.572 59.8389 117.972 58.8308 118.856C57.8228 119.74 53.7905 120.245 53.7905 120.245C53.7905 120.245 54.5465 116.709 55.1766 115.825Z" fill="#FFAE80"/>
<path d="M58.8306 94.9881C57.5705 94.7355 56.4365 95.4933 56.0584 96.6299L55.4284 99.5345C55.1764 100.671 55.9324 101.934 57.1925 102.186C58.4526 102.439 59.5867 101.681 59.9647 100.545L60.5948 97.6402C60.8468 96.5036 60.0907 95.2407 58.8306 94.9881Z" fill="#FFAD80"/>
<path d="M55.4284 97.0085C55.6804 96.1245 56.0585 95.2405 56.9405 94.9879C57.8226 94.7354 57.9486 94.8617 58.5787 94.8617C59.5867 94.8617 59.9648 94.8616 60.3428 94.9879C61.4769 95.4931 61.0988 96.8822 60.5948 96.756C60.2168 96.6297 59.8387 96.5034 59.3347 96.6297C58.5786 96.8822 58.4526 97.8925 58.4526 97.8925L57.4446 98.9028L56.5625 99.408L56.4365 100.166L55.5544 99.9131C55.4284 99.0291 55.0504 98.6503 55.4284 97.0085Z" fill="#2F313F"/>
<path d="M58.8307 100.798C58.7047 101.177 58.8307 101.556 59.2087 101.934C59.5868 101.556 59.9648 101.177 60.0908 100.671L60.2168 100.04C59.5867 99.7875 58.9567 100.166 58.8307 100.798Z" fill="#2F313F"/>
<path d="M57.0662 100.04C56.579 100.04 56.1841 99.6447 56.1841 99.1565C56.1841 98.6682 56.579 98.2725 57.0662 98.2725C57.5533 98.2725 57.9482 98.6682 57.9482 99.1565C57.9482 99.6447 57.5533 100.04 57.0662 100.04Z" fill="#FFAD80"/>
<path d="M57.8402 100.039L57.1021 99.875L57.5929 97.6557L58.331 97.8197L57.8402 100.039Z" fill="#2F313F"/>
<path d="M57.9482 103.071C57.1921 102.945 56.6881 102.061 56.8141 101.303L57.1921 99.9141L60.0903 100.545L59.7123 101.935C59.4603 102.692 58.7042 103.198 57.9482 103.071Z" fill="#2F313F"/>
</svg>
